<svg width="360" height="71" viewBox="0 0 360 71" fill="none" xmlns="http://www.w3.org/2000/svg">
<path d="M44.2207 25.9824L35.7246 55.084C34.4551 59.4134 33.8203 62.1478 33.8203 63.2871C33.8203 63.873 33.918 64.3125 34.1133 64.6055C34.3411 64.8659 34.6341 64.9961 34.9922 64.9961C35.5456 64.9961 36.1478 64.752 36.7988 64.2637C37.4824 63.7428 39.1751 61.7246 41.877 58.209L43.3418 59.332C40.7702 63.401 38.1335 66.3958 35.4316 68.3164C33.6413 69.5534 31.916 70.1719 30.2559 70.1719C28.9863 70.1719 27.9935 69.8138 27.2773 69.0977C26.5612 68.3815 26.2031 67.4538 26.2031 66.3145C26.2031 65.2077 26.4147 63.7428 26.8379 61.9199C27.3587 59.5111 28.8398 54.2702 31.2812 46.1973C25.7474 55.2793 21.1087 61.5456 17.3652 64.9961C13.6543 68.4466 10.2038 70.1719 7.01367 70.1719C5.51628 70.1719 4.24674 69.651 3.20508 68.6094C2.16341 67.5677 1.64258 66.2493 1.64258 64.6543C1.64258 62.2129 2.35872 58.4694 3.79102 53.4238L8.03906 38.3359C9.08073 34.7227 9.60156 32.4766 9.60156 31.5977C9.60156 31.207 9.45508 30.8815 9.16211 30.6211C8.90169 30.3281 8.60872 30.1816 8.2832 30.1816C7.59961 30.1816 6.91602 30.4258 6.23242 30.9141C5.54883 31.4023 4.0026 33.209 1.59375 36.334L0.0800781 35.2598C2.52148 31.4837 5.10938 28.7005 7.84375 26.9102C9.92708 25.5104 11.8477 24.8105 13.6055 24.8105C14.8099 24.8105 15.7865 25.2012 16.5352 25.9824C17.3164 26.7311 17.707 27.7077 17.707 28.9121C17.707 30.6699 17.056 33.8112 15.7539 38.3359L11.1641 54.1074C9.89453 58.4043 9.25977 61.1224 9.25977 62.2617C9.25977 62.8802 9.45508 63.3848 9.8457 63.7754C10.2689 64.1335 10.8223 64.3125 11.5059 64.3125C12.5801 64.3125 13.9798 63.7754 15.7051 62.7012C17.4303 61.627 19.7253 59.2507 22.5898 55.5723C25.487 51.8613 27.8633 48.3945 29.7188 45.1719C31.6068 41.9167 33.6087 36.7572 35.7246 29.6934L36.7988 25.9824H44.2207ZM66.2207 24.8105L59.7266 47.0273C65.8138 37.9453 70.4688 31.972 73.6914 29.1074C76.9466 26.2428 80.0716 24.8105 83.0664 24.8105C84.694 24.8105 86.0286 25.3477 87.0703 26.4219C88.1445 27.4961 88.6816 28.8958 88.6816 30.6211C88.6816 32.5742 88.2096 35.1784 87.2656 38.4336L81.3086 58.9902C80.625 61.3665 80.2832 62.8151 80.2832 63.3359C80.2832 63.7917 80.4134 64.1823 80.6738 64.5078C80.9342 64.8008 81.2109 64.9473 81.5039 64.9473C81.8945 64.9473 82.3665 64.7357 82.9199 64.3125C84.6452 62.9453 86.5332 60.862 88.584 58.0625L90.0977 58.9902C87.0703 63.3197 84.2057 66.4121 81.5039 68.2676C79.6159 69.5371 77.9232 70.1719 76.4258 70.1719C75.2214 70.1719 74.2611 69.7975 73.5449 69.0488C72.8288 68.3327 72.4707 67.3561 72.4707 66.1191C72.4707 64.5566 73.0241 61.8711 74.1309 58.0625L79.7949 38.4336C80.5111 35.9922 80.8691 34.0879 80.8691 32.7207C80.8691 32.0697 80.6576 31.5488 80.2344 31.1582C79.8112 30.735 79.2904 30.5234 78.6719 30.5234C77.7604 30.5234 76.6699 30.9141 75.4004 31.6953C72.9915 33.1602 70.485 35.5853 67.8809 38.9707C65.2767 42.3236 62.526 46.6204 59.6289 51.8613C58.099 54.6283 56.8294 57.6556 55.8203 60.9434L53.3789 69H46.0547L54.9414 38.4336C55.9831 34.7552 56.5039 32.5417 56.5039 31.793C56.5039 31.0768 56.2109 30.4583 55.625 29.9375C55.0716 29.3841 54.3717 29.1074 53.5254 29.1074C53.1348 29.1074 52.4512 29.1725 51.4746 29.3027L49.6191 29.5957L49.3262 27.8379L66.2207 24.8105ZM107.45 51.7C107.55 53.1667 108.017 54.4667 108.85 55.6C109.684 56.7333 110.834 57.6333 112.3 58.3C113.8 58.9333 115.567 59.25 117.6 59.25C119.534 59.25 121.267 59.05 122.8 58.65C124.367 58.25 125.717 57.75 126.85 57.15C128.017 56.55 128.917 55.9333 129.55 55.3L135.45 64.7C134.617 65.6 133.434 66.4833 131.9 67.35C130.4 68.1833 128.417 68.8667 125.95 69.4C123.484 69.9333 120.367 70.2 116.6 70.2C112.067 70.2 108.034 69.35 104.5 67.65C100.967 65.95 98.1837 63.45 96.1504 60.15C94.1171 56.85 93.1004 52.8167 93.1004 48.05C93.1004 44.05 93.9671 40.45 95.7004 37.25C97.4671 34.0167 100.017 31.4667 103.35 29.6C106.684 27.7 110.7 26.75 115.4 26.75C119.867 26.75 123.734 27.5667 127 29.2C130.3 30.8333 132.834 33.2667 134.6 36.5C136.4 39.7 137.3 43.7 137.3 48.5C137.3 48.7667 137.284 49.3 137.25 50.1C137.25 50.9 137.217 51.4333 137.15 51.7H107.45ZM123 43.75C122.967 42.6833 122.684 41.6333 122.15 40.6C121.617 39.5333 120.817 38.6667 119.75 38C118.684 37.3 117.317 36.95 115.65 36.95C113.984 36.95 112.567 37.2833 111.4 37.95C110.267 38.5833 109.4 39.4167 108.8 40.45C108.2 41.4833 107.867 42.5833 107.8 43.75H123ZM138.655 27.95H145.655V11.1H160.705V27.95H169.905V40.45H160.705V51.9C160.705 53.6 160.955 54.9833 161.455 56.05C161.955 57.0833 162.872 57.6 164.205 57.6C165.105 57.6 165.872 57.4 166.505 57C167.138 56.6 167.522 56.3333 167.655 56.2L172.855 67C172.622 67.2 171.888 67.5667 170.655 68.1C169.455 68.6333 167.922 69.1167 166.055 69.55C164.188 69.9833 162.105 70.2 159.805 70.2C155.705 70.2 152.322 69.05 149.655 66.75C146.988 64.4167 145.655 60.8333 145.655 56V40.45H138.655V27.95ZM204.083 26.75C206.95 26.75 209.75 27.3333 212.483 28.5C215.217 29.6667 217.467 31.5167 219.233 34.05C221 36.55 221.883 39.85 221.883 43.95V69H206.683V46.45C206.683 43.5167 206.017 41.3167 204.683 39.85C203.383 38.35 201.6 37.6 199.333 37.6C197.833 37.6 196.4 38 195.033 38.8C193.667 39.5667 192.55 40.6667 191.683 42.1C190.85 43.5 190.433 45.1167 190.433 46.95V69H175.183V0.199998H190.433V34C190.8 32.9 191.617 31.8 192.883 30.7C194.183 29.5667 195.8 28.6333 197.733 27.9C199.7 27.1333 201.817 26.75 204.083 26.75ZM228.354 69V27.95H243.554V69H228.354ZM236.154 19.5C233.754 19.5 231.721 18.6667 230.054 17C228.388 15.3 227.554 13.2833 227.554 10.95C227.554 8.61666 228.388 6.6 230.054 4.9C231.754 3.16666 233.788 2.29999 236.154 2.29999C237.721 2.29999 239.154 2.7 240.454 3.5C241.754 4.26666 242.804 5.3 243.604 6.6C244.404 7.9 244.804 9.35 244.804 10.95C244.804 13.2833 243.954 15.3 242.254 17C240.554 18.6667 238.521 19.5 236.154 19.5ZM273.276 58.25C275.176 58.25 276.743 57.9333 277.976 57.3C279.21 56.6333 280.043 56.1 280.476 55.7L287.426 66C286.893 66.4333 285.976 67 284.676 67.7C283.376 68.3667 281.743 68.95 279.776 69.45C277.843 69.95 275.626 70.2 273.126 70.2C268.426 70.2 264.293 69.3167 260.726 67.55C257.16 65.75 254.376 63.2167 252.376 59.95C250.41 56.6833 249.426 52.85 249.426 48.45C249.426 44.0167 250.41 40.1833 252.376 36.95C254.376 33.7167 257.16 31.2167 260.726 29.45C264.293 27.65 268.426 26.75 273.126 26.75C275.593 26.75 277.793 27.0167 279.726 27.55C281.693 28.05 283.343 28.6333 284.676 29.3C286.01 29.9333 286.943 30.4833 287.476 30.95L280.376 41.35C280.143 41.1167 279.71 40.7833 279.076 40.35C278.476 39.9167 277.693 39.5333 276.726 39.2C275.76 38.8667 274.61 38.7 273.276 38.7C271.643 38.7 270.11 39.1167 268.676 39.95C267.276 40.7833 266.143 41.9333 265.276 43.4C264.41 44.8667 263.976 46.55 263.976 48.45C263.976 50.35 264.41 52.05 265.276 53.55C266.143 55.0167 267.276 56.1667 268.676 57C270.11 57.8333 271.643 58.25 273.276 58.25ZM322.454 69V62.35C322.154 63.0167 321.388 63.9833 320.154 65.25C318.954 66.5167 317.354 67.6667 315.354 68.7C313.354 69.7 311.021 70.2 308.354 70.2C304.354 70.2 300.854 69.2333 297.854 67.3C294.854 65.3333 292.521 62.7167 290.854 59.45C289.188 56.15 288.354 52.5 288.354 48.5C288.354 44.5 289.188 40.8667 290.854 37.6C292.521 34.3 294.854 31.6667 297.854 29.7C300.854 27.7333 304.354 26.75 308.354 26.75C310.921 26.75 313.171 27.1667 315.104 28C317.038 28.8 318.604 29.7667 319.804 30.9C321.004 32 321.838 33.0167 322.304 33.95V27.95H337.404V69H322.454ZM303.254 48.5C303.254 50.3667 303.688 52.05 304.554 53.55C305.421 55.0167 306.571 56.1667 308.004 57C309.471 57.8333 311.088 58.25 312.854 58.25C314.688 58.25 316.304 57.8333 317.704 57C319.104 56.1667 320.204 55.0167 321.004 53.55C321.838 52.05 322.254 50.3667 322.254 48.5C322.254 46.6333 321.838 44.9667 321.004 43.5C320.204 42 319.104 40.8333 317.704 40C316.304 39.1333 314.688 38.7 312.854 38.7C311.088 38.7 309.471 39.1333 308.004 40C306.571 40.8333 305.421 42 304.554 43.5C303.688 44.9667 303.254 46.6333 303.254 48.5ZM359.25 69H344V0.199998H359.25V69Z" fill="white"/>
</svg>
